<svg xmlns="http://www.w3.org/2000/svg" width="30" height="23" fill="none" viewBox="0 0 30 23">
  <path fill="#2ECC71" d="M24.369 11.664c3.364 0 5.631 2.105 5.631 5.224 0 2.806-2.606 5.144-6.135 5.144-3.866 0-6.722-2.806-6.722-7.093C17.143 5.195 25.04 1.297 30 .829v4.287c-3.362.545-7.142 3.585-7.311 6.94.169-.078.84-.392 1.68-.392Zm-17.141 0c3.36 0 5.63 2.105 5.63 5.224 0 2.806-2.607 5.144-6.136 5.144C2.856 22.032 0 19.226 0 14.94 0 5.195 7.899 1.297 12.857.829v4.287c-3.362.545-7.142 3.585-7.311 6.94.169-.078.84-.392 1.682-.392Z"/>
</svg>
