<svg width="32" height="32" viewBox="0 0 257 58" fill="none" xmlns="http://www.w3.org/2000/svg">
<path d="M16.9149 44.1427H6.80865V30.1021H16.9149V32.8178H10.3933V35.2411H16.4457V37.9569H10.3933V41.4271H16.9149V44.1427ZM34.8125 30.1021L29.7172 44.1427H25.6823L20.587 30.1021H24.3685L27.7466 39.9654L31.1247 30.1021H34.8125ZM50.9838 39.8428C50.9838 40.5218 50.8477 41.1284 50.5756 41.6628C50.3034 42.1972 49.9297 42.6403 49.4543 42.9922C48.9037 43.4072 48.2985 43.7027 47.6386 43.8788C46.9786 44.0547 46.1418 44.1427 45.1284 44.1427H39.0291V30.1021H44.4529C45.5788 30.1021 46.403 30.1398 46.9253 30.2151C47.4477 30.2906 47.9654 30.4572 48.4784 30.715C49.0102 30.9854 49.4058 31.3484 49.6653 31.804C49.9249 32.2598 50.0547 32.78 50.0547 33.3647C50.0547 34.0437 49.8764 34.6424 49.5199 35.1609C49.1634 35.6796 48.6598 36.0835 48.0092 36.3727V36.4482C48.9226 36.6305 49.6466 37.0077 50.1815 37.5798C50.7164 38.1518 50.9838 38.9061 50.9838 39.8428ZM46.3671 34.0719C46.3671 33.8393 46.3093 33.6067 46.1935 33.374C46.0778 33.1415 45.8729 32.9687 45.5788 32.8555C45.3161 32.7549 44.9892 32.6999 44.5982 32.6906C44.2073 32.6811 43.6583 32.6764 42.9515 32.6764H42.6135V35.6466H43.1766C43.7459 35.6466 44.2307 35.6372 44.6311 35.6184C45.0314 35.5995 45.3473 35.5366 45.5788 35.4297C45.9041 35.2852 46.1168 35.0981 46.2169 34.8686C46.3171 34.6392 46.3671 34.3737 46.3671 34.0719ZM47.2492 39.7862C47.2492 39.3399 47.1632 38.9957 46.9912 38.7536C46.819 38.5116 46.5265 38.331 46.1138 38.2115C45.8322 38.1299 45.4443 38.0858 44.9501 38.0795C44.4559 38.0732 43.9398 38.0701 43.4019 38.0701H42.6135V41.5685H42.8764C43.8898 41.5685 44.6155 41.5653 45.0533 41.5589C45.4912 41.5527 45.8947 41.471 46.2638 41.3139C46.6391 41.1567 46.8972 40.9477 47.038 40.6868C47.1788 40.4259 47.2492 40.1257 47.2492 39.7862Z" fill="black"/>
<path d="M4.63051 46.6936H50.9355V51.3468H4.63051V46.6936ZM4.63051 22.79L27.783 4.8147L51.5699 23.9533L51.4843 26.3055L4.63051 25.7541V22.79ZM27.783 18.7743C29.5658 18.7743 30.6794 16.8363 29.788 15.2844C29.3736 14.5655 28.6096 14.1211 27.783 14.1211C26.0003 14.1211 24.8866 16.0592 25.778 17.611C26.1924 18.3299 26.9565 18.7743 27.783 18.7743Z" fill="#34CB9E"/>
<path d="M69.18 33.3V36.8H73.88V39.02H69.18V42.72H74.48V45H66.38V31.02H74.48V33.3H69.18ZM76.3045 39.42C76.3045 38.3 76.5245 37.3067 76.9645 36.44C77.4179 35.5733 78.0245 34.9067 78.7845 34.44C79.5579 33.9733 80.4179 33.74 81.3645 33.74C82.1912 33.74 82.9112 33.9067 83.5245 34.24C84.1512 34.5733 84.6512 34.9933 85.0245 35.5V33.92H87.8445V45H85.0245V43.38C84.6645 43.9 84.1645 44.3333 83.5245 44.68C82.8979 45.0133 82.1712 45.18 81.3445 45.18C80.4112 45.18 79.5579 44.94 78.7845 44.46C78.0245 43.98 77.4179 43.3067 76.9645 42.44C76.5245 41.56 76.3045 40.5533 76.3045 39.42ZM85.0245 39.46C85.0245 38.78 84.8912 38.2 84.6245 37.72C84.3579 37.2267 83.9979 36.8533 83.5445 36.6C83.0912 36.3333 82.6045 36.2 82.0845 36.2C81.5645 36.2 81.0845 36.3267 80.6445 36.58C80.2045 36.8333 79.8445 37.2067 79.5645 37.7C79.2979 38.18 79.1645 38.7533 79.1645 39.42C79.1645 40.0867 79.2979 40.6733 79.5645 41.18C79.8445 41.6733 80.2045 42.0533 80.6445 42.32C81.0979 42.5867 81.5779 42.72 82.0845 42.72C82.6045 42.72 83.0912 42.5933 83.5445 42.34C83.9979 42.0733 84.3579 41.7 84.6245 41.22C84.8912 40.7267 85.0245 40.14 85.0245 39.46ZM94.8192 45.18C93.9126 45.18 93.0992 45.02 92.3792 44.7C91.6592 44.3667 91.0859 43.92 90.6592 43.36C90.2459 42.8 90.0192 42.18 89.9792 41.5H92.7992C92.8526 41.9267 93.0592 42.28 93.4192 42.56C93.7926 42.84 94.2526 42.98 94.7992 42.98C95.3326 42.98 95.7459 42.8733 96.0392 42.66C96.3459 42.4467 96.4992 42.1733 96.4992 41.84C96.4992 41.48 96.3126 41.2133 95.9392 41.04C95.5792 40.8533 94.9992 40.6533 94.1992 40.44C93.3726 40.24 92.6926 40.0333 92.1592 39.82C91.6392 39.6067 91.1859 39.28 90.7992 38.84C90.4259 38.4 90.2392 37.8067 90.2392 37.06C90.2392 36.4467 90.4126 35.8867 90.7592 35.38C91.1192 34.8733 91.6259 34.4733 92.2792 34.18C92.9459 33.8867 93.7259 33.74 94.6192 33.74C95.9392 33.74 96.9926 34.0733 97.7792 34.74C98.5659 35.3933 98.9992 36.28 99.0792 37.4H96.3992C96.3592 36.96 96.1726 36.6133 95.8392 36.36C95.5192 36.0933 95.0859 35.96 94.5392 35.96C94.0326 35.96 93.6392 36.0533 93.3592 36.24C93.0926 36.4267 92.9592 36.6867 92.9592 37.02C92.9592 37.3933 93.1459 37.68 93.5192 37.88C93.8926 38.0667 94.4726 38.26 95.2592 38.46C96.0592 38.66 96.7192 38.8667 97.2392 39.08C97.7592 39.2933 98.2059 39.6267 98.5792 40.08C98.9659 40.52 99.1659 41.1067 99.1792 41.84C99.1792 42.48 98.9992 43.0533 98.6392 43.56C98.2926 44.0667 97.7859 44.4667 97.1192 44.76C96.4659 45.04 95.6992 45.18 94.8192 45.18ZM104.738 36.22V41.58C104.738 41.9533 104.824 42.2267 104.998 42.4C105.184 42.56 105.491 42.64 105.918 42.64H107.218V45H105.458C103.098 45 101.918 43.8533 101.918 41.56V36.22H100.598V33.92H101.918V31.18H104.738V33.92H107.218V36.22H104.738ZM126.537 31.04L121.417 45H118.017L112.897 31.04H115.897L119.737 42.14L123.557 31.04H126.537ZM138.516 39.22C138.516 39.62 138.489 39.98 138.436 40.3H130.336C130.403 41.1 130.683 41.7267 131.176 42.18C131.669 42.6333 132.276 42.86 132.996 42.86C134.036 42.86 134.776 42.4133 135.216 41.52H138.236C137.916 42.5867 137.303 43.4667 136.396 44.16C135.489 44.84 134.376 45.18 133.056 45.18C131.989 45.18 131.029 44.9467 130.176 44.48C129.336 44 128.676 43.3267 128.196 42.46C127.729 41.5933 127.496 40.5933 127.496 39.46C127.496 38.3133 127.729 37.3067 128.196 36.44C128.663 35.5733 129.316 34.9067 130.156 34.44C130.996 33.9733 131.963 33.74 133.056 33.74C134.109 33.74 135.049 33.9667 135.876 34.42C136.716 34.8733 137.363 35.52 137.816 36.36C138.283 37.1867 138.516 38.14 138.516 39.22ZM135.616 38.42C135.603 37.7 135.343 37.1267 134.836 36.7C134.329 36.26 133.709 36.04 132.976 36.04C132.283 36.04 131.696 36.2533 131.216 36.68C130.749 37.0933 130.463 37.6733 130.356 38.42H135.616ZM146.7 33.76C148.02 33.76 149.086 34.18 149.9 35.02C150.713 35.8467 151.12 37.0067 151.12 38.5V45H148.32V38.88C148.32 38 148.1 37.3267 147.66 36.86C147.22 36.38 146.62 36.14 145.86 36.14C145.086 36.14 144.473 36.38 144.02 36.86C143.58 37.3267 143.36 38 143.36 38.88V45H140.56V33.92H143.36V35.3C143.733 34.82 144.206 34.4467 144.78 34.18C145.366 33.9 146.006 33.76 146.7 33.76ZM155.202 32.6C154.709 32.6 154.296 32.4467 153.962 32.14C153.642 31.82 153.482 31.4267 153.482 30.96C153.482 30.4933 153.642 30.1067 153.962 29.8C154.296 29.48 154.709 29.32 155.202 29.32C155.696 29.32 156.102 29.48 156.422 29.8C156.756 30.1067 156.922 30.4933 156.922 30.96C156.922 31.4267 156.756 31.82 156.422 32.14C156.102 32.4467 155.696 32.6 155.202 32.6ZM156.582 33.92V45H153.782V33.92H156.582ZM158.629 39.46C158.629 38.3133 158.862 37.3133 159.329 36.46C159.795 35.5933 160.442 34.9267 161.269 34.46C162.095 33.98 163.042 33.74 164.109 33.74C165.482 33.74 166.615 34.0867 167.509 34.78C168.415 35.46 169.022 36.42 169.329 37.66H166.309C166.149 37.18 165.875 36.8067 165.489 36.54C165.115 36.26 164.649 36.12 164.089 36.12C163.289 36.12 162.655 36.4133 162.189 37C161.722 37.5733 161.489 38.3933 161.489 39.46C161.489 40.5133 161.722 41.3333 162.189 41.92C162.655 42.4933 163.289 42.78 164.089 42.78C165.222 42.78 165.962 42.2733 166.309 41.26H169.329C169.022 42.46 168.415 43.4133 167.509 44.12C166.602 44.8267 165.469 45.18 164.109 45.18C163.042 45.18 162.095 44.9467 161.269 44.48C160.442 44 159.795 43.3333 159.329 42.48C158.862 41.6133 158.629 40.6067 158.629 39.46ZM181.68 39.22C181.68 39.62 181.653 39.98 181.6 40.3H173.5C173.567 41.1 173.847 41.7267 174.34 42.18C174.833 42.6333 175.44 42.86 176.16 42.86C177.2 42.86 177.94 42.4133 178.38 41.52H181.4C181.08 42.5867 180.467 43.4667 179.56 44.16C178.653 44.84 177.54 45.18 176.22 45.18C175.153 45.18 174.193 44.9467 173.34 44.48C172.5 44 171.84 43.3267 171.36 42.46C170.893 41.5933 170.66 40.5933 170.66 39.46C170.66 38.3133 170.893 37.3067 171.36 36.44C171.827 35.5733 172.48 34.9067 173.32 34.44C174.16 33.9733 175.127 33.74 176.22 33.74C177.273 33.74 178.213 33.9667 179.04 34.42C179.88 34.8733 180.527 35.52 180.98 36.36C181.447 37.1867 181.68 38.14 181.68 39.22ZM178.78 38.42C178.767 37.7 178.507 37.1267 178 36.7C177.493 36.26 176.873 36.04 176.14 36.04C175.447 36.04 174.86 36.2533 174.38 36.68C173.913 37.0933 173.627 37.6733 173.52 38.42H178.78Z" fill="#34CB9E"/>
<path d="M196.409 37.84C197.196 37.9867 197.843 38.38 198.349 39.02C198.856 39.66 199.109 40.3933 199.109 41.22C199.109 41.9667 198.923 42.6267 198.549 43.2C198.189 43.76 197.663 44.2 196.969 44.52C196.276 44.84 195.456 45 194.509 45H188.489V31.04H194.249C195.196 31.04 196.009 31.1933 196.689 31.5C197.383 31.8067 197.903 32.2333 198.249 32.78C198.609 33.3267 198.789 33.9467 198.789 34.64C198.789 35.4533 198.569 36.1333 198.129 36.68C197.703 37.2267 197.129 37.6133 196.409 37.84ZM191.289 36.8H193.849C194.516 36.8 195.029 36.6533 195.389 36.36C195.749 36.0533 195.929 35.62 195.929 35.06C195.929 34.5 195.749 34.0667 195.389 33.76C195.029 33.4533 194.516 33.3 193.849 33.3H191.289V36.8ZM194.109 42.72C194.789 42.72 195.316 42.56 195.689 42.24C196.076 41.92 196.269 41.4667 196.269 40.88C196.269 40.28 196.069 39.8133 195.669 39.48C195.269 39.1333 194.729 38.96 194.049 38.96H191.289V42.72H194.109ZM200.621 39.42C200.621 38.3 200.841 37.3067 201.281 36.44C201.734 35.5733 202.341 34.9067 203.101 34.44C203.874 33.9733 204.734 33.74 205.681 33.74C206.508 33.74 207.228 33.9067 207.841 34.24C208.468 34.5733 208.968 34.9933 209.341 35.5V33.92H212.161V45H209.341V43.38C208.981 43.9 208.481 44.3333 207.841 44.68C207.214 45.0133 206.488 45.18 205.661 45.18C204.728 45.18 203.874 44.94 203.101 44.46C202.341 43.98 201.734 43.3067 201.281 42.44C200.841 41.56 200.621 40.5533 200.621 39.42ZM209.341 39.46C209.341 38.78 209.208 38.2 208.941 37.72C208.674 37.2267 208.314 36.8533 207.861 36.6C207.408 36.3333 206.921 36.2 206.401 36.2C205.881 36.2 205.401 36.3267 204.961 36.58C204.521 36.8333 204.161 37.2067 203.881 37.7C203.614 38.18 203.481 38.7533 203.481 39.42C203.481 40.0867 203.614 40.6733 203.881 41.18C204.161 41.6733 204.521 42.0533 204.961 42.32C205.414 42.5867 205.894 42.72 206.401 42.72C206.921 42.72 207.408 42.5933 207.861 42.34C208.314 42.0733 208.674 41.7 208.941 41.22C209.208 40.7267 209.341 40.14 209.341 39.46ZM221.036 33.76C222.356 33.76 223.422 34.18 224.236 35.02C225.049 35.8467 225.456 37.0067 225.456 38.5V45H222.656V38.88C222.656 38 222.436 37.3267 221.996 36.86C221.556 36.38 220.956 36.14 220.196 36.14C219.422 36.14 218.809 36.38 218.356 36.86C217.916 37.3267 217.696 38 217.696 38.88V45H214.896V33.92H217.696V35.3C218.069 34.82 218.542 34.4467 219.116 34.18C219.702 33.9 220.342 33.76 221.036 33.76ZM234.678 45L230.918 40.28V45H228.118V30.2H230.918V38.62L234.638 33.92H238.278L233.398 39.48L238.318 45H234.678Z" fill="black"/>
</svg>
