<svg xmlns="http://www.w3.org/2000/svg" width="42" height="63" fill="none" viewBox="0 0 42 63">
  <path fill="#2ECC71" fill-rule="evenodd" d="M20.65.833c11.375 0 20.596 9.141 20.596 20.417 0 3.41-.84 6.622-2.333 9.448L20.65 62.083 2.81 31.46A20.164 20.164 0 0 1 .054 21.25C.054 9.974 9.275.833 20.65.833Zm0 5.834c-8.125 0-14.711 6.529-14.711 14.583 0 2.316.539 4.538 1.559 6.544l.494.895L20.65 50.417l12.748-21.88a14.369 14.369 0 0 0 1.963-7.287c0-8.054-6.586-14.583-14.711-14.583Zm0 5.833c4.875 0 8.827 3.918 8.827 8.75S25.525 30 20.65 30s-8.827-3.918-8.827-8.75 3.952-8.75 8.827-8.75Zm0 5.833c-1.625 0-2.942 1.306-2.942 2.917 0 1.61 1.317 2.917 2.942 2.917 1.625 0 2.942-1.306 2.942-2.917 0-1.61-1.317-2.917-2.942-2.917Z" clip-rule="evenodd"/>
</svg>
