<svg xmlns="http://www.w3.org/2000/svg" width="60" height="59" fill="none" viewBox="0 0 60 59">
  <path stroke="#2ECC71" stroke-linecap="round" stroke-linejoin="round" stroke-width="6" d="M36.255 15.98c1.828.353 3.643 1.152 4.96 2.457 1.317 1.306 2.123 3.105 2.48 4.917m-6.2-15.979c3.798.418 7.216 2.24 9.92 4.917 2.703 2.677 4.533 6.068 4.96 9.833m-.002 18.38v6.662c.01 2.546-2.3 4.672-4.893 4.44-22.385.018-39.744-17.35-39.727-39.391-.233-2.557 1.901-4.838 4.467-4.84h6.733a4.518 4.518 0 0 1 2.971 1.073c2.348 1.998 3.858 8.778 3.277 11.474-.453 2.105-2.593 3.577-4.048 5.016a35.722 35.722 0 0 0 13.466 13.323c1.455-1.439 2.944-3.556 5.07-4.005 2.73-.576 9.614.923 11.621 3.267a4.411 4.411 0 0 1 1.063 2.981Z"/>
</svg>
