<svg width="101" height="75" viewBox="0 0 101 75" fill="none" xmlns="http://www.w3.org/2000/svg">
<path d="M2.61328 48.6836H6.32812L12.9844 55.3633L19.6406 48.6836H23.3555V67H19.6406V53.8281L12.9844 60.2383L6.32812 53.8281V67H2.61328V48.6836ZM34.8164 48.6836H38.7539L47.6133 67H43.7109L42.2461 63.918H31.5469L30.1289 67H26.2148L34.8164 48.6836ZM40.7812 60.8594L36.8203 52.5391L32.9648 60.8594H40.7812ZM55.9805 51.9414H49.2188V48.6836H66.457V51.9414H59.6953V67H55.9805V51.9414ZM70.4297 48.6836H86.0273V51.9414H74.1445V55.5977H84.668V58.6562H74.1445V63.7539H86.2734V67H70.4297V48.6836Z" fill="black"/>
<path d="M8.12109 18.9414H1.35938V15.6836H18.5977V18.9414H11.8359V34H8.12109V18.9414ZM28.8164 15.6836H32.7539L41.6133 34H37.7109L36.2461 30.918H25.5469L24.1289 34H20.2148L28.8164 15.6836ZM34.7812 27.8594L30.8203 19.5391L26.9648 27.8594H34.7812ZM45.3164 28.5508C45.9805 28.9258 46.6523 29.2656 47.332 29.5703C48.0195 29.8672 48.7305 30.1211 49.4648 30.332C50.1992 30.5352 50.9688 30.6914 51.7734 30.8008C52.5859 30.9102 53.4492 30.9648 54.3633 30.9648C55.4648 30.9648 56.4023 30.8945 57.1758 30.7539C57.9492 30.6055 58.5781 30.4062 59.0625 30.1562C59.5547 29.8984 59.9102 29.5938 60.1289 29.2422C60.3555 28.8906 60.4688 28.5078 60.4688 28.0938C60.4688 27.4297 60.1914 26.9062 59.6367 26.5234C59.082 26.1328 58.2266 25.9375 57.0703 25.9375C56.5625 25.9375 56.0273 25.9727 55.4648 26.043C54.9023 26.1055 54.332 26.1758 53.7539 26.2539C53.1836 26.332 52.6172 26.4062 52.0547 26.4766C51.5 26.5391 50.9766 26.5703 50.4844 26.5703C49.6641 26.5703 48.875 26.4648 48.1172 26.2539C47.3672 26.043 46.6992 25.7266 46.1133 25.3047C45.5352 24.8828 45.0742 24.3555 44.7305 23.7227C44.3867 23.0898 44.2148 22.3516 44.2148 21.5078C44.2148 21.0078 44.2812 20.5117 44.4141 20.0195C44.5547 19.5273 44.7734 19.0586 45.0703 18.6133C45.375 18.1602 45.7656 17.7422 46.2422 17.3594C46.7188 16.9688 47.293 16.6328 47.9648 16.3516C48.6445 16.0703 49.4258 15.8516 50.3086 15.6953C51.1992 15.5312 52.2109 15.4492 53.3438 15.4492C54.1641 15.4492 54.9883 15.4961 55.8164 15.5898C56.6445 15.6758 57.4492 15.8008 58.2305 15.9648C59.0195 16.1289 59.7773 16.3281 60.5039 16.5625C61.2305 16.7891 61.9062 17.043 62.5312 17.3242L60.9023 20.3242C60.3867 20.0977 59.832 19.8906 59.2383 19.7031C58.6445 19.5078 58.0234 19.3398 57.375 19.1992C56.7266 19.0586 56.0547 18.9492 55.3594 18.8711C54.6719 18.7852 53.9688 18.7422 53.25 18.7422C52.2266 18.7422 51.3828 18.8164 50.7188 18.9648C50.0625 19.1133 49.5391 19.3047 49.1484 19.5391C48.7578 19.7656 48.4844 20.0234 48.3281 20.3125C48.1797 20.5938 48.1055 20.875 48.1055 21.1562C48.1055 21.7031 48.3516 22.1523 48.8438 22.5039C49.3359 22.8477 50.0859 23.0195 51.0938 23.0195C51.5 23.0195 51.9648 22.9922 52.4883 22.9375C53.0195 22.875 53.5742 22.8086 54.1523 22.7383C54.7383 22.668 55.332 22.6055 55.9336 22.5508C56.543 22.4883 57.1328 22.457 57.7031 22.457C58.7812 22.457 59.7344 22.5781 60.5625 22.8203C61.3984 23.0625 62.0977 23.4102 62.6602 23.8633C63.2227 24.3086 63.6484 24.8516 63.9375 25.4922C64.2266 26.125 64.3711 26.8359 64.3711 27.625C64.3711 28.6797 64.125 29.6211 63.6328 30.4492C63.1484 31.2695 62.4531 31.9648 61.5469 32.5352C60.6484 33.0977 59.5625 33.5273 58.2891 33.8242C57.0156 34.1133 55.5977 34.2578 54.0352 34.2578C53.0039 34.2578 51.9961 34.1914 51.0117 34.0586C50.0273 33.9336 49.082 33.7539 48.1758 33.5195C47.2773 33.2773 46.418 32.9922 45.5977 32.6641C44.7852 32.3281 44.0312 31.9609 43.3359 31.5625L45.3164 28.5508ZM68.4609 15.6836H72.1758V25.1641L81.8438 15.6836H86.6016L77.5781 24.4258L86.6016 34H81.6562L74.9062 27.0156L72.1758 29.6523V34H68.4609V15.6836Z" fill="black"/>
</svg>
